<?xml version="1.0" encoding="UTF-8" standalone="no"?>
<!DOCTYPE svg PUBLIC "-//W3C//DTD SVG 1.1//EN"
 "http://www.w3.org/Graphics/SVG/1.1/DTD/svg11.dtd">
<!-- Generated by graphviz version 2.44.0 (0)
 -->
<!-- Pages: 1 -->
<svg width="3043pt" height="404pt"
 viewBox="0.00 0.00 3042.57 404.00" xmlns="http://www.w3.org/2000/svg" xmlns:xlink="http://www.w3.org/1999/xlink">
<g id="graph0" class="graph" transform="scale(1 1) rotate(0) translate(4 400)">
<polygon fill="white" stroke="transparent" points="-4,4 -4,-400 3038.57,-400 3038.57,4 -4,4"/>
<!-- [root] aws_iam_openid_connect_provider.github (expand) -->
<g id="node1" class="node">
<title>[root] aws_iam_openid_connect_provider.github (expand)</title>
<polygon fill="none" stroke="black" points="1990.93,-252 1686.93,-252 1686.93,-216 1990.93,-216 1990.93,-252"/>
<text text-anchor="middle" x="1838.93" y="-230.3" font-family="Times-Roman" font-size="14.00">aws_iam_openid_connect_provider.github</text>
</g>
<!-- [root] provider[&quot;registry.terraform.io/hashicorp/aws&quot;] -->
<g id="node6" class="node">
<title>[root] provider[&quot;registry.terraform.io/hashicorp/aws&quot;]</title>
<polygon fill="none" stroke="black" points="1435.93,-108 1123.41,-90 1435.93,-72 1748.46,-90 1435.93,-108"/>
<text text-anchor="middle" x="1435.93" y="-86.3" font-family="Times-Roman" font-size="14.00">provider[&quot;registry.terraform.io/hashicorp/aws&quot;]</text>
</g>
<!-- [root] aws_iam_openid_connect_provider.github (expand)&#45;&gt;[root] provider[&quot;registry.terraform.io/hashicorp/aws&quot;] -->
<g id="edge5" class="edge">
<title>[root] aws_iam_openid_connect_provider.github (expand)&#45;&gt;[root] provider[&quot;registry.terraform.io/hashicorp/aws&quot;]</title>
<path fill="none" stroke="black" d="M1796.51,-215.99C1749.84,-197.49 1672.49,-167.42 1604.93,-144 1568.33,-131.31 1526.83,-118.28 1494.12,-108.31"/>
<polygon fill="black" stroke="black" points="1494.85,-104.88 1484.26,-105.32 1492.81,-111.57 1494.85,-104.88"/>
</g>
<!-- [root] local.aws_sts (expand) -->
<g id="node11" class="node">
<title>[root] local.aws_sts (expand)</title>
<ellipse fill="none" stroke="black" cx="1455.93" cy="-162" rx="139.98" ry="18"/>
<text text-anchor="middle" x="1455.93" y="-158.3" font-family="Times-Roman" font-size="14.00">[root] local.aws_sts (expand)</text>
</g>
<!-- [root] aws_iam_openid_connect_provider.github (expand)&#45;&gt;[root] local.aws_sts (expand) -->
<g id="edge1" class="edge">
<title>[root] aws_iam_openid_connect_provider.github (expand)&#45;&gt;[root] local.aws_sts (expand)</title>
<path fill="none" stroke="black" d="M1745.73,-215.97C1683.85,-204.66 1603.19,-189.91 1542.69,-178.86"/>
<polygon fill="black" stroke="black" points="1543.24,-175.4 1532.78,-177.04 1541.98,-182.29 1543.24,-175.4"/>
</g>
<!-- [root] local.tags_all (expand) -->
<g id="node12" class="node">
<title>[root] local.tags_all (expand)</title>
<ellipse fill="none" stroke="black" cx="2005.93" cy="-162" rx="139.18" ry="18"/>
<text text-anchor="middle" x="2005.93" y="-158.3" font-family="Times-Roman" font-size="14.00">[root] local.tags_all (expand)</text>
</g>
<!-- [root] aws_iam_openid_connect_provider.github (expand)&#45;&gt;[root] local.tags_all (expand) -->
<g id="edge2" class="edge">
<title>[root] aws_iam_openid_connect_provider.github (expand)&#45;&gt;[root] local.tags_all (expand)</title>
<path fill="none" stroke="black" d="M1879.79,-215.88C1903.23,-206.05 1932.8,-193.65 1957.42,-183.33"/>
<polygon fill="black" stroke="black" points="1959.07,-186.44 1966.94,-179.35 1956.36,-179.98 1959.07,-186.44"/>
</g>
<!-- [root] local.thumbprints (expand) -->
<g id="node13" class="node">
<title>[root] local.thumbprints (expand)</title>
<ellipse fill="none" stroke="black" cx="2323.93" cy="-162" rx="161.37" ry="18"/>
<text text-anchor="middle" x="2323.93" y="-158.3" font-family="Times-Roman" font-size="14.00">[root] local.thumbprints (expand)</text>
</g>
<!-- [root] aws_iam_openid_connect_provider.github (expand)&#45;&gt;[root] local.thumbprints (expand) -->
<g id="edge3" class="edge">
<title>[root] aws_iam_openid_connect_provider.github (expand)&#45;&gt;[root] local.thumbprints (expand)</title>
<path fill="none" stroke="black" d="M1956.96,-215.97C2037.06,-204.4 2142.02,-189.26 2219.16,-178.12"/>
<polygon fill="black" stroke="black" points="2219.98,-181.54 2229.38,-176.65 2218.98,-174.61 2219.98,-181.54"/>
</g>
<!-- [root] local.url (expand) -->
<g id="node14" class="node">
<title>[root] local.url (expand)</title>
<ellipse fill="none" stroke="black" cx="1883.93" cy="-90" rx="116.98" ry="18"/>
<text text-anchor="middle" x="1883.93" y="-86.3" font-family="Times-Roman" font-size="14.00">[root] local.url (expand)</text>
</g>
<!-- [root] aws_iam_openid_connect_provider.github (expand)&#45;&gt;[root] local.url (expand) -->
<g id="edge4" class="edge">
<title>[root] aws_iam_openid_connect_provider.github (expand)&#45;&gt;[root] local.url (expand)</title>
<path fill="none" stroke="black" d="M1841.3,-215.93C1844.11,-197.76 1849.51,-168.34 1857.93,-144 1861.05,-134.99 1865.33,-125.54 1869.52,-117.14"/>
<polygon fill="black" stroke="black" points="1872.66,-118.69 1874.15,-108.2 1866.45,-115.48 1872.66,-118.69"/>
</g>
<!-- [root] data.aws_caller_identity.current (expand) -->
<g id="node2" class="node">
<title>[root] data.aws_caller_identity.current (expand)</title>
<polygon fill="none" stroke="black" points="1066.93,-180 832.93,-180 832.93,-144 1066.93,-144 1066.93,-180"/>
<text text-anchor="middle" x="949.93" y="-158.3" font-family="Times-Roman" font-size="14.00">data.aws_caller_identity.current</text>
</g>
<!-- [root] data.aws_caller_identity.current (expand)&#45;&gt;[root] provider[&quot;registry.terraform.io/hashicorp/aws&quot;] -->
<g id="edge6" class="edge">
<title>[root] data.aws_caller_identity.current (expand)&#45;&gt;[root] provider[&quot;registry.terraform.io/hashicorp/aws&quot;]</title>
<path fill="none" stroke="black" d="M1066.96,-144.14C1150.96,-132.05 1262.72,-115.95 1341.15,-104.65"/>
<polygon fill="black" stroke="black" points="1342.11,-108.05 1351.51,-103.16 1341.11,-101.12 1342.11,-108.05"/>
</g>
<!-- [root] data.aws_iam_policy_document.assume_role_with_web_identity_trust_policy (expand) -->
<g id="node3" class="node">
<title>[root] data.aws_iam_policy_document.assume_role_with_web_identity_trust_policy (expand)</title>
<polygon fill="none" stroke="black" points="1668.43,-252 1125.43,-252 1125.43,-216 1668.43,-216 1668.43,-252"/>
<text text-anchor="middle" x="1396.93" y="-230.3" font-family="Times-Roman" font-size="14.00">data.aws_iam_policy_document.assume_role_with_web_identity_trust_policy</text>
</g>
<!-- [root] data.aws_iam_policy_document.assume_role_with_web_identity_trust_policy (expand)&#45;&gt;[root] data.aws_caller_identity.current (expand) -->
<g id="edge7" class="edge">
<title>[root] data.aws_iam_policy_document.assume_role_with_web_identity_trust_policy (expand)&#45;&gt;[root] data.aws_caller_identity.current (expand)</title>
<path fill="none" stroke="black" d="M1288.16,-215.97C1221.77,-205.57 1136.87,-192.27 1068.74,-181.6"/>
<polygon fill="black" stroke="black" points="1069.23,-178.14 1058.81,-180.05 1068.15,-185.06 1069.23,-178.14"/>
</g>
<!-- [root] data.http.machine_public_ip (expand) -->
<g id="node4" class="node">
<title>[root] data.http.machine_public_ip (expand)</title>
<polygon fill="none" stroke="black" points="527.93,-180 315.93,-180 315.93,-144 527.93,-144 527.93,-180"/>
<text text-anchor="middle" x="421.93" y="-158.3" font-family="Times-Roman" font-size="14.00">data.http.machine_public_ip</text>
</g>
<!-- [root] data.aws_iam_policy_document.assume_role_with_web_identity_trust_policy (expand)&#45;&gt;[root] data.http.machine_public_ip (expand) -->
<g id="edge8" class="edge">
<title>[root] data.aws_iam_policy_document.assume_role_with_web_identity_trust_policy (expand)&#45;&gt;[root] data.http.machine_public_ip (expand)</title>
<path fill="none" stroke="black" d="M1159.98,-215.99C963,-201.85 691.07,-182.32 538.28,-171.35"/>
<polygon fill="black" stroke="black" points="538.17,-167.84 527.94,-170.61 537.67,-174.82 538.17,-167.84"/>
</g>
<!-- [root] var.github_url -->
<g id="node9" class="node">
<title>[root] var.github_url</title>
<polygon fill="none" stroke="black" points="2060.43,-36 1953.43,-36 1953.43,0 2066.43,0 2066.43,-30 2060.43,-36"/>
<polyline fill="none" stroke="black" points="2060.43,-36 2060.43,-30 "/>
<polyline fill="none" stroke="black" points="2066.43,-30 2060.43,-30 "/>
<text text-anchor="middle" x="2009.93" y="-14.3" font-family="Times-Roman" font-size="14.00">var.github_url</text>
</g>
<!-- [root] data.aws_iam_policy_document.assume_role_with_web_identity_trust_policy (expand)&#45;&gt;[root] var.github_url -->
<g id="edge10" class="edge">
<title>[root] data.aws_iam_policy_document.assume_role_with_web_identity_trust_policy (expand)&#45;&gt;[root] var.github_url</title>
<path fill="none" stroke="black" d="M1307.2,-215.95C1201.01,-192.09 1046.57,-143.47 1113.93,-72 1142.3,-41.91 1739.87,-25.28 1943.02,-20.47"/>
<polygon fill="black" stroke="black" points="1943.34,-23.97 1953.26,-20.24 1943.18,-16.97 1943.34,-23.97"/>
</g>
<!-- [root] data.aws_iam_policy_document.assume_role_with_web_identity_trust_policy (expand)&#45;&gt;[root] local.aws_sts (expand) -->
<g id="edge9" class="edge">
<title>[root] data.aws_iam_policy_document.assume_role_with_web_identity_trust_policy (expand)&#45;&gt;[root] local.aws_sts (expand)</title>
<path fill="none" stroke="black" d="M1411.52,-215.7C1418.59,-207.3 1427.22,-197.07 1434.98,-187.86"/>
<polygon fill="black" stroke="black" points="1437.75,-190.01 1441.52,-180.1 1432.4,-185.49 1437.75,-190.01"/>
</g>
<!-- [root] provider[&quot;registry.terraform.io/hashicorp/http&quot;] -->
<g id="node7" class="node">
<title>[root] provider[&quot;registry.terraform.io/hashicorp/http&quot;]</title>
<polygon fill="none" stroke="black" points="421.93,-108 108.57,-90 421.93,-72 735.3,-90 421.93,-108"/>
<text text-anchor="middle" x="421.93" y="-86.3" font-family="Times-Roman" font-size="14.00">provider[&quot;registry.terraform.io/hashicorp/http&quot;]</text>
</g>
<!-- [root] data.http.machine_public_ip (expand)&#45;&gt;[root] provider[&quot;registry.terraform.io/hashicorp/http&quot;] -->
<g id="edge11" class="edge">
<title>[root] data.http.machine_public_ip (expand)&#45;&gt;[root] provider[&quot;registry.terraform.io/hashicorp/http&quot;]</title>
<path fill="none" stroke="black" d="M421.93,-143.7C421.93,-135.98 421.93,-126.71 421.93,-118.11"/>
<polygon fill="black" stroke="black" points="425.43,-118.1 421.93,-108.1 418.43,-118.1 425.43,-118.1"/>
</g>
<!-- [root] data.tls_certificate.github (expand) -->
<g id="node5" class="node">
<title>[root] data.tls_certificate.github (expand)</title>
<polygon fill="none" stroke="black" points="2514.93,-108 2320.93,-108 2320.93,-72 2514.93,-72 2514.93,-108"/>
<text text-anchor="middle" x="2417.93" y="-86.3" font-family="Times-Roman" font-size="14.00">data.tls_certificate.github</text>
</g>
<!-- [root] provider[&quot;registry.terraform.io/hashicorp/tls&quot;] -->
<g id="node8" class="node">
<title>[root] provider[&quot;registry.terraform.io/hashicorp/tls&quot;]</title>
<polygon fill="none" stroke="black" points="2417.93,-36 2115.63,-18 2417.93,0 2720.24,-18 2417.93,-36"/>
<text text-anchor="middle" x="2417.93" y="-14.3" font-family="Times-Roman" font-size="14.00">provider[&quot;registry.terraform.io/hashicorp/tls&quot;]</text>
</g>
<!-- [root] data.tls_certificate.github (expand)&#45;&gt;[root] provider[&quot;registry.terraform.io/hashicorp/tls&quot;] -->
<g id="edge12" class="edge">
<title>[root] data.tls_certificate.github (expand)&#45;&gt;[root] provider[&quot;registry.terraform.io/hashicorp/tls&quot;]</title>
<path fill="none" stroke="black" d="M2417.93,-71.7C2417.93,-63.98 2417.93,-54.71 2417.93,-46.11"/>
<polygon fill="black" stroke="black" points="2421.43,-46.1 2417.93,-36.1 2414.43,-46.1 2421.43,-46.1"/>
</g>
<!-- [root] data.tls_certificate.github (expand)&#45;&gt;[root] var.github_url -->
<g id="edge13" class="edge">
<title>[root] data.tls_certificate.github (expand)&#45;&gt;[root] var.github_url</title>
<path fill="none" stroke="black" d="M2320.91,-72.59C2259.55,-62.18 2178.58,-48.38 2106.93,-36 2097.14,-34.31 2086.79,-32.51 2076.65,-30.74"/>
<polygon fill="black" stroke="black" points="2077.06,-27.25 2066.6,-28.98 2075.85,-34.15 2077.06,-27.25"/>
</g>
<!-- [root] var.tags -->
<g id="node10" class="node">
<title>[root] var.tags</title>
<polygon fill="none" stroke="black" points="2084.93,-108 2018.93,-108 2018.93,-72 2090.93,-72 2090.93,-102 2084.93,-108"/>
<polyline fill="none" stroke="black" points="2084.93,-108 2084.93,-102 "/>
<polyline fill="none" stroke="black" points="2090.93,-102 2084.93,-102 "/>
<text text-anchor="middle" x="2054.93" y="-86.3" font-family="Times-Roman" font-size="14.00">var.tags</text>
</g>
<!-- [root] local.tags_all (expand)&#45;&gt;[root] var.github_url -->
<g id="edge14" class="edge">
<title>[root] local.tags_all (expand)&#45;&gt;[root] var.github_url</title>
<path fill="none" stroke="black" d="M2055.6,-144.93C2072.75,-136.73 2090.1,-124.82 2099.93,-108 2108,-94.18 2107.87,-85.89 2099.93,-72 2092.47,-58.95 2080.41,-48.8 2067.51,-41.03"/>
<polygon fill="black" stroke="black" points="2068.93,-37.82 2058.49,-36.03 2065.54,-43.94 2068.93,-37.82"/>
</g>
<!-- [root] local.tags_all (expand)&#45;&gt;[root] var.tags -->
<g id="edge15" class="edge">
<title>[root] local.tags_all (expand)&#45;&gt;[root] var.tags</title>
<path fill="none" stroke="black" d="M2017.79,-144.05C2023.55,-135.84 2030.58,-125.79 2036.97,-116.66"/>
<polygon fill="black" stroke="black" points="2039.97,-118.47 2042.84,-108.28 2034.24,-114.46 2039.97,-118.47"/>
</g>
<!-- [root] local.thumbprints (expand)&#45;&gt;[root] data.tls_certificate.github (expand) -->
<g id="edge16" class="edge">
<title>[root] local.thumbprints (expand)&#45;&gt;[root] data.tls_certificate.github (expand)</title>
<path fill="none" stroke="black" d="M2346.69,-144.05C2358.72,-135.09 2373.68,-123.96 2386.77,-114.2"/>
<polygon fill="black" stroke="black" points="2389.13,-116.81 2395.06,-108.03 2384.95,-111.2 2389.13,-116.81"/>
</g>
<!-- [root] local.url (expand)&#45;&gt;[root] var.github_url -->
<g id="edge17" class="edge">
<title>[root] local.url (expand)&#45;&gt;[root] var.github_url</title>
<path fill="none" stroke="black" d="M1913.79,-72.41C1930.52,-63.12 1951.62,-51.4 1969.78,-41.31"/>
<polygon fill="black" stroke="black" points="1971.93,-44.12 1978.97,-36.2 1968.53,-38 1971.93,-44.12"/>
</g>
<!-- [root] output.account_id (expand) -->
<g id="node15" class="node">
<title>[root] output.account_id (expand)</title>
<ellipse fill="none" stroke="black" cx="611.93" cy="-234" rx="162.47" ry="18"/>
<text text-anchor="middle" x="611.93" y="-230.3" font-family="Times-Roman" font-size="14.00">[root] output.account_id (expand)</text>
</g>
<!-- [root] output.account_id (expand)&#45;&gt;[root] data.aws_caller_identity.current (expand) -->
<g id="edge18" class="edge">
<title>[root] output.account_id (expand)&#45;&gt;[root] data.aws_caller_identity.current (expand)</title>
<path fill="none" stroke="black" d="M684.86,-217.9C735.46,-207.42 803.28,-193.37 857.65,-182.11"/>
<polygon fill="black" stroke="black" points="858.56,-185.5 867.64,-180.04 857.14,-178.64 858.56,-185.5"/>
</g>
<!-- [root] output.assume_role_with_web_identity_trust_policy (expand) -->
<g id="node16" class="node">
<title>[root] output.assume_role_with_web_identity_trust_policy (expand)</title>
<ellipse fill="none" stroke="black" cx="1193.93" cy="-306" rx="311.14" ry="18"/>
<text text-anchor="middle" x="1193.93" y="-302.3" font-family="Times-Roman" font-size="14.00">[root] output.assume_role_with_web_identity_trust_policy (expand)</text>
</g>
<!-- [root] output.assume_role_with_web_identity_trust_policy (expand)&#45;&gt;[root] data.aws_iam_policy_document.assume_role_with_web_identity_trust_policy (expand) -->
<g id="edge19" class="edge">
<title>[root] output.assume_role_with_web_identity_trust_policy (expand)&#45;&gt;[root] data.aws_iam_policy_document.assume_role_with_web_identity_trust_policy (expand)</title>
<path fill="none" stroke="black" d="M1242.81,-288.14C1271.4,-278.29 1307.67,-265.78 1337.85,-255.37"/>
<polygon fill="black" stroke="black" points="1339.11,-258.64 1347.42,-252.07 1336.82,-252.03 1339.11,-258.64"/>
</g>
<!-- [root] output.caller_arn (expand) -->
<g id="node17" class="node">
<title>[root] output.caller_arn (expand)</title>
<ellipse fill="none" stroke="black" cx="949.93" cy="-234" rx="157.07" ry="18"/>
<text text-anchor="middle" x="949.93" y="-230.3" font-family="Times-Roman" font-size="14.00">[root] output.caller_arn (expand)</text>
</g>
<!-- [root] output.caller_arn (expand)&#45;&gt;[root] data.aws_caller_identity.current (expand) -->
<g id="edge20" class="edge">
<title>[root] output.caller_arn (expand)&#45;&gt;[root] data.aws_caller_identity.current (expand)</title>
<path fill="none" stroke="black" d="M949.93,-215.7C949.93,-207.98 949.93,-198.71 949.93,-190.11"/>
<polygon fill="black" stroke="black" points="953.43,-190.1 949.93,-180.1 946.43,-190.1 953.43,-190.1"/>
</g>
<!-- [root] output.machine_public_ip (expand) -->
<g id="node18" class="node">
<title>[root] output.machine_public_ip (expand)</title>
<ellipse fill="none" stroke="black" cx="196.93" cy="-234" rx="196.87" ry="18"/>
<text text-anchor="middle" x="196.93" y="-230.3" font-family="Times-Roman" font-size="14.00">[root] output.machine_public_ip (expand)</text>
</g>
<!-- [root] output.machine_public_ip (expand)&#45;&gt;[root] data.http.machine_public_ip (expand) -->
<g id="edge21" class="edge">
<title>[root] output.machine_public_ip (expand)&#45;&gt;[root] data.http.machine_public_ip (expand)</title>
<path fill="none" stroke="black" d="M249.69,-216.59C281.84,-206.58 323.17,-193.73 357.29,-183.11"/>
<polygon fill="black" stroke="black" points="358.65,-186.35 367.16,-180.04 356.57,-179.67 358.65,-186.35"/>
</g>
<!-- [root] output.thumbprint_list (expand) -->
<g id="node19" class="node">
<title>[root] output.thumbprint_list (expand)</title>
<ellipse fill="none" stroke="black" cx="2851.93" cy="-306" rx="182.77" ry="18"/>
<text text-anchor="middle" x="2851.93" y="-302.3" font-family="Times-Roman" font-size="14.00">[root] output.thumbprint_list (expand)</text>
</g>
<!-- [root] output.thumbprint_list (expand)&#45;&gt;[root] data.tls_certificate.github (expand) -->
<g id="edge22" class="edge">
<title>[root] output.thumbprint_list (expand)&#45;&gt;[root] data.tls_certificate.github (expand)</title>
<path fill="none" stroke="black" d="M2817.88,-288.21C2739.79,-249.71 2547.94,-155.1 2461.45,-112.46"/>
<polygon fill="black" stroke="black" points="2462.95,-109.29 2452.43,-108.01 2459.85,-115.57 2462.95,-109.29"/>
</g>
<!-- [root] provider[&quot;registry.terraform.io/hashicorp/aws&quot;] (close) -->
<g id="node20" class="node">
<title>[root] provider[&quot;registry.terraform.io/hashicorp/aws&quot;] (close)</title>
<ellipse fill="none" stroke="black" cx="1803.93" cy="-306" rx="280.55" ry="18"/>
<text text-anchor="middle" x="1803.93" y="-302.3" font-family="Times-Roman" font-size="14.00">[root] provider[&quot;registry.terraform.io/hashicorp/aws&quot;] (close)</text>
</g>
<!-- [root] provider[&quot;registry.terraform.io/hashicorp/aws&quot;] (close)&#45;&gt;[root] aws_iam_openid_connect_provider.github (expand) -->
<g id="edge23" class="edge">
<title>[root] provider[&quot;registry.terraform.io/hashicorp/aws&quot;] (close)&#45;&gt;[root] aws_iam_openid_connect_provider.github (expand)</title>
<path fill="none" stroke="black" d="M1812.58,-287.7C1816.57,-279.73 1821.38,-270.1 1825.8,-261.26"/>
<polygon fill="black" stroke="black" points="1829.04,-262.61 1830.38,-252.1 1822.78,-259.48 1829.04,-262.61"/>
</g>
<!-- [root] provider[&quot;registry.terraform.io/hashicorp/aws&quot;] (close)&#45;&gt;[root] data.aws_iam_policy_document.assume_role_with_web_identity_trust_policy (expand) -->
<g id="edge24" class="edge">
<title>[root] provider[&quot;registry.terraform.io/hashicorp/aws&quot;] (close)&#45;&gt;[root] data.aws_iam_policy_document.assume_role_with_web_identity_trust_policy (expand)</title>
<path fill="none" stroke="black" d="M1710.81,-288.98C1649.9,-278.51 1570.06,-264.78 1506.14,-253.78"/>
<polygon fill="black" stroke="black" points="1506.48,-250.29 1496.03,-252.04 1505.29,-257.19 1506.48,-250.29"/>
</g>
<!-- [root] provider[&quot;registry.terraform.io/hashicorp/http&quot;] (close) -->
<g id="node21" class="node">
<title>[root] provider[&quot;registry.terraform.io/hashicorp/http&quot;] (close)</title>
<ellipse fill="none" stroke="black" cx="506.93" cy="-306" rx="282.15" ry="18"/>
<text text-anchor="middle" x="506.93" y="-302.3" font-family="Times-Roman" font-size="14.00">[root] provider[&quot;registry.terraform.io/hashicorp/http&quot;] (close)</text>
</g>
<!-- [root] provider[&quot;registry.terraform.io/hashicorp/http&quot;] (close)&#45;&gt;[root] data.http.machine_public_ip (expand) -->
<g id="edge25" class="edge">
<title>[root] provider[&quot;registry.terraform.io/hashicorp/http&quot;] (close)&#45;&gt;[root] data.http.machine_public_ip (expand)</title>
<path fill="none" stroke="black" d="M477.67,-288.04C464.51,-278.97 449.95,-266.64 440.93,-252 429.5,-233.45 424.87,-209.05 423.03,-190.49"/>
<polygon fill="black" stroke="black" points="426.51,-190.03 422.24,-180.33 419.53,-190.57 426.51,-190.03"/>
</g>
<!-- [root] provider[&quot;registry.terraform.io/hashicorp/tls&quot;] (close) -->
<g id="node22" class="node">
<title>[root] provider[&quot;registry.terraform.io/hashicorp/tls&quot;] (close)</title>
<ellipse fill="none" stroke="black" cx="2376.93" cy="-306" rx="274.05" ry="18"/>
<text text-anchor="middle" x="2376.93" y="-302.3" font-family="Times-Roman" font-size="14.00">[root] provider[&quot;registry.terraform.io/hashicorp/tls&quot;] (close)</text>
</g>
<!-- [root] provider[&quot;registry.terraform.io/hashicorp/tls&quot;] (close)&#45;&gt;[root] data.tls_certificate.github (expand) -->
<g id="edge26" class="edge">
<title>[root] provider[&quot;registry.terraform.io/hashicorp/tls&quot;] (close)&#45;&gt;[root] data.tls_certificate.github (expand)</title>
<path fill="none" stroke="black" d="M2401.39,-288.07C2429.87,-266.7 2475.37,-227 2493.93,-180 2499.81,-165.12 2501.33,-158.19 2493.93,-144 2487.47,-131.61 2476.63,-121.52 2465.14,-113.6"/>
<polygon fill="black" stroke="black" points="2467.02,-110.65 2456.71,-108.22 2463.25,-116.55 2467.02,-110.65"/>
</g>
<!-- [root] root -->
<g id="node23" class="node">
<title>[root] root</title>
<ellipse fill="none" stroke="black" cx="1023.93" cy="-378" rx="55.79" ry="18"/>
<text text-anchor="middle" x="1023.93" y="-374.3" font-family="Times-Roman" font-size="14.00">[root] root</text>
</g>
<!-- [root] root&#45;&gt;[root] output.account_id (expand) -->
<g id="edge27" class="edge">
<title>[root] root&#45;&gt;[root] output.account_id (expand)</title>
<path fill="none" stroke="black" d="M982.78,-365.78C949.77,-356.22 902.57,-341.32 862.93,-324 832.67,-310.78 828.46,-300.61 797.93,-288 763.33,-273.71 723.59,-261.81 689.75,-252.94"/>
<polygon fill="black" stroke="black" points="690.46,-249.51 679.91,-250.4 688.72,-256.28 690.46,-249.51"/>
</g>
<!-- [root] root&#45;&gt;[root] output.assume_role_with_web_identity_trust_policy (expand) -->
<g id="edge28" class="edge">
<title>[root] root&#45;&gt;[root] output.assume_role_with_web_identity_trust_policy (expand)</title>
<path fill="none" stroke="black" d="M1057.11,-363.34C1081.58,-353.26 1115.3,-339.38 1143.14,-327.92"/>
<polygon fill="black" stroke="black" points="1144.8,-331.02 1152.72,-323.97 1142.14,-324.54 1144.8,-331.02"/>
</g>
<!-- [root] root&#45;&gt;[root] output.caller_arn (expand) -->
<g id="edge29" class="edge">
<title>[root] root&#45;&gt;[root] output.caller_arn (expand)</title>
<path fill="none" stroke="black" d="M969.88,-373.14C936.3,-367.61 895.54,-354.55 873.93,-324 864.69,-310.94 866.53,-302.19 873.93,-288 880.58,-275.26 891.84,-264.96 903.69,-256.95"/>
<polygon fill="black" stroke="black" points="905.74,-259.79 912.36,-251.51 902.02,-253.86 905.74,-259.79"/>
</g>
<!-- [root] root&#45;&gt;[root] output.machine_public_ip (expand) -->
<g id="edge30" class="edge">
<title>[root] root&#45;&gt;[root] output.machine_public_ip (expand)</title>
<path fill="none" stroke="black" d="M967.99,-377.16C794.31,-377.14 272.56,-372.96 215.93,-324 198.61,-309.02 194.81,-282.47 194.78,-262.26"/>
<polygon fill="black" stroke="black" points="198.28,-262.17 195.07,-252.08 191.28,-261.97 198.28,-262.17"/>
</g>
<!-- [root] root&#45;&gt;[root] output.thumbprint_list (expand) -->
<g id="edge31" class="edge">
<title>[root] root&#45;&gt;[root] output.thumbprint_list (expand)</title>
<path fill="none" stroke="black" d="M1079.78,-376.32C1288.27,-373.55 2040.85,-361.41 2659.93,-324 2678.2,-322.9 2697.41,-321.49 2716.35,-319.96"/>
<polygon fill="black" stroke="black" points="2716.84,-323.43 2726.52,-319.12 2716.27,-316.45 2716.84,-323.43"/>
</g>
<!-- [root] root&#45;&gt;[root] provider[&quot;registry.terraform.io/hashicorp/aws&quot;] (close) -->
<g id="edge32" class="edge">
<title>[root] root&#45;&gt;[root] provider[&quot;registry.terraform.io/hashicorp/aws&quot;] (close)</title>
<path fill="none" stroke="black" d="M1076.93,-372.24C1190.37,-362.06 1460.74,-337.8 1637.88,-321.9"/>
<polygon fill="black" stroke="black" points="1638.44,-325.37 1648.09,-320.99 1637.81,-318.39 1638.44,-325.37"/>
</g>
<!-- [root] root&#45;&gt;[root] provider[&quot;registry.terraform.io/hashicorp/http&quot;] (close) -->
<g id="edge33" class="edge">
<title>[root] root&#45;&gt;[root] provider[&quot;registry.terraform.io/hashicorp/http&quot;] (close)</title>
<path fill="none" stroke="black" d="M973.42,-370.16C894.82,-359.52 740.91,-338.68 631.39,-323.85"/>
<polygon fill="black" stroke="black" points="631.64,-320.35 621.26,-322.48 630.7,-327.29 631.64,-320.35"/>
</g>
<!-- [root] root&#45;&gt;[root] provider[&quot;registry.terraform.io/hashicorp/tls&quot;] (close) -->
<g id="edge34" class="edge">
<title>[root] root&#45;&gt;[root] provider[&quot;registry.terraform.io/hashicorp/tls&quot;] (close)</title>
<path fill="none" stroke="black" d="M1078.79,-374.49C1236.56,-367.21 1705.1,-345.31 2093.93,-324 2119.86,-322.58 2147.12,-321.02 2174.07,-319.44"/>
<polygon fill="black" stroke="black" points="2174.6,-322.92 2184.38,-318.84 2174.19,-315.93 2174.6,-322.92"/>
</g>
</g>
</svg>
