<?xml version="1.0" encoding="UTF-8" standalone="no"?>
<!DOCTYPE svg PUBLIC "-//W3C//DTD SVG 1.1//EN"
 "http://www.w3.org/Graphics/SVG/1.1/DTD/svg11.dtd">
<!-- Generated by graphviz version 10.0.1 (20240210.2158)
 -->
<!-- Pages: 1 -->
<svg width="2343pt" height="260pt"
 viewBox="0.00 0.00 2342.59 260.00" xmlns="http://www.w3.org/2000/svg" xmlns:xlink="http://www.w3.org/1999/xlink">
<g id="graph0" class="graph" transform="scale(1 1) rotate(0) translate(4 256)">
<polygon fill="white" stroke="none" points="-4,4 -4,-256 2338.59,-256 2338.59,4 -4,4"/>
<!-- [root] aws_iam_role.role (expand) -->
<g id="node1" class="node">
<title>[root] aws_iam_role.role (expand)</title>
<polygon fill="none" stroke="black" points="1260.06,-108 1142.81,-108 1142.81,-72 1260.06,-72 1260.06,-108"/>
<text text-anchor="middle" x="1201.43" y="-84.95" font-family="Times,serif" font-size="14.00">aws_iam_role.role</text>
</g>
<!-- [root] provider[&quot;registry.terraform.io/hashicorp/aws&quot;] -->
<g id="node2" class="node">
<title>[root] provider[&quot;registry.terraform.io/hashicorp/aws&quot;]</title>
<polygon fill="none" stroke="black" points="264.43,-36 0,-18 264.43,0 528.86,-18 264.43,-36"/>
<text text-anchor="middle" x="264.43" y="-12.95" font-family="Times,serif" font-size="14.00">provider[&quot;registry.terraform.io/hashicorp/aws&quot;]</text>
</g>
<!-- [root] aws_iam_role.role (expand)&#45;&gt;[root] provider[&quot;registry.terraform.io/hashicorp/aws&quot;] -->
<g id="edge1" class="edge">
<title>[root] aws_iam_role.role (expand)&#45;&gt;[root] provider[&quot;registry.terraform.io/hashicorp/aws&quot;]</title>
<path fill="none" stroke="black" d="M1142.46,-84.59C994.53,-73.54 604.77,-44.43 397.87,-28.97"/>
<polygon fill="black" stroke="black" points="398.38,-25.5 388.15,-28.24 397.86,-32.48 398.38,-25.5"/>
</g>
<!-- [root] var.assume_role_policy -->
<g id="node3" class="node">
<title>[root] var.assume_role_policy</title>
<polygon fill="none" stroke="black" points="685.93,-36 546.93,-36 546.93,0 691.93,0 691.93,-30 685.93,-36"/>
<polyline fill="none" stroke="black" points="685.93,-36 685.93,-30"/>
<polyline fill="none" stroke="black" points="691.93,-30 685.93,-30"/>
<text text-anchor="middle" x="619.43" y="-12.95" font-family="Times,serif" font-size="14.00">var.assume_role_policy</text>
</g>
<!-- [root] aws_iam_role.role (expand)&#45;&gt;[root] var.assume_role_policy -->
<g id="edge2" class="edge">
<title>[root] aws_iam_role.role (expand)&#45;&gt;[root] var.assume_role_policy</title>
<path fill="none" stroke="black" d="M1142.68,-84.67C1051.1,-77.49 868.56,-61.54 703.58,-36.24"/>
<polygon fill="black" stroke="black" points="704.15,-32.79 693.74,-34.72 703.08,-39.71 704.15,-32.79"/>
</g>
<!-- [root] var.description -->
<g id="node4" class="node">
<title>[root] var.description</title>
<polygon fill="none" stroke="black" points="800.56,-36 710.31,-36 710.31,0 806.56,0 806.56,-30 800.56,-36"/>
<polyline fill="none" stroke="black" points="800.56,-36 800.56,-30"/>
<polyline fill="none" stroke="black" points="806.56,-30 800.56,-30"/>
<text text-anchor="middle" x="758.43" y="-12.95" font-family="Times,serif" font-size="14.00">var.description</text>
</g>
<!-- [root] aws_iam_role.role (expand)&#45;&gt;[root] var.description -->
<g id="edge3" class="edge">
<title>[root] aws_iam_role.role (expand)&#45;&gt;[root] var.description</title>
<path fill="none" stroke="black" d="M1142.58,-83.64C1068.88,-76.32 938.64,-61.39 817.93,-36.13"/>
<polygon fill="black" stroke="black" points="819.02,-32.78 808.51,-34.13 817.57,-39.63 819.02,-32.78"/>
</g>
<!-- [root] var.force_detach_policies -->
<g id="node5" class="node">
<title>[root] var.force_detach_policies</title>
<polygon fill="none" stroke="black" points="973.81,-36 825.06,-36 825.06,0 979.81,0 979.81,-30 973.81,-36"/>
<polyline fill="none" stroke="black" points="973.81,-36 973.81,-30"/>
<polyline fill="none" stroke="black" points="979.81,-30 973.81,-30"/>
<text text-anchor="middle" x="902.43" y="-12.95" font-family="Times,serif" font-size="14.00">var.force_detach_policies</text>
</g>
<!-- [root] aws_iam_role.role (expand)&#45;&gt;[root] var.force_detach_policies -->
<g id="edge4" class="edge">
<title>[root] aws_iam_role.role (expand)&#45;&gt;[root] var.force_detach_policies</title>
<path fill="none" stroke="black" d="M1142.36,-75.17C1098.29,-64.85 1037.44,-50.61 988.04,-39.04"/>
<polygon fill="black" stroke="black" points="989.05,-35.68 978.52,-36.81 987.46,-42.5 989.05,-35.68"/>
</g>
<!-- [root] var.inline_policy -->
<g id="node6" class="node">
<title>[root] var.inline_policy</title>
<polygon fill="none" stroke="black" points="1099.18,-36 997.68,-36 997.68,0 1105.18,0 1105.18,-30 1099.18,-36"/>
<polyline fill="none" stroke="black" points="1099.18,-36 1099.18,-30"/>
<polyline fill="none" stroke="black" points="1105.18,-30 1099.18,-30"/>
<text text-anchor="middle" x="1051.43" y="-12.95" font-family="Times,serif" font-size="14.00">var.inline_policy</text>
</g>
<!-- [root] aws_iam_role.role (expand)&#45;&gt;[root] var.inline_policy -->
<g id="edge5" class="edge">
<title>[root] aws_iam_role.role (expand)&#45;&gt;[root] var.inline_policy</title>
<path fill="none" stroke="black" d="M1163.97,-71.52C1144.29,-62.34 1119.98,-50.99 1098.99,-41.2"/>
<polygon fill="black" stroke="black" points="1100.59,-38.08 1090.05,-37.02 1097.63,-44.42 1100.59,-38.08"/>
</g>
<!-- [root] var.managed_policy_arns -->
<g id="node7" class="node">
<title>[root] var.managed_policy_arns</title>
<polygon fill="none" stroke="black" points="1273.18,-36 1123.68,-36 1123.68,0 1279.18,0 1279.18,-30 1273.18,-36"/>
<polyline fill="none" stroke="black" points="1273.18,-36 1273.18,-30"/>
<polyline fill="none" stroke="black" points="1279.18,-30 1273.18,-30"/>
<text text-anchor="middle" x="1201.43" y="-12.95" font-family="Times,serif" font-size="14.00">var.managed_policy_arns</text>
</g>
<!-- [root] aws_iam_role.role (expand)&#45;&gt;[root] var.managed_policy_arns -->
<g id="edge6" class="edge">
<title>[root] aws_iam_role.role (expand)&#45;&gt;[root] var.managed_policy_arns</title>
<path fill="none" stroke="black" d="M1201.43,-71.7C1201.43,-64.41 1201.43,-55.73 1201.43,-47.54"/>
<polygon fill="black" stroke="black" points="1204.93,-47.62 1201.43,-37.62 1197.93,-47.62 1204.93,-47.62"/>
</g>
<!-- [root] var.max_session_duration -->
<g id="node8" class="node">
<title>[root] var.max_session_duration</title>
<polygon fill="none" stroke="black" points="1449.31,-36 1297.56,-36 1297.56,0 1455.31,0 1455.31,-30 1449.31,-36"/>
<polyline fill="none" stroke="black" points="1449.31,-36 1449.31,-30"/>
<polyline fill="none" stroke="black" points="1455.31,-30 1449.31,-30"/>
<text text-anchor="middle" x="1376.43" y="-12.95" font-family="Times,serif" font-size="14.00">var.max_session_duration</text>
</g>
<!-- [root] aws_iam_role.role (expand)&#45;&gt;[root] var.max_session_duration -->
<g id="edge7" class="edge">
<title>[root] aws_iam_role.role (expand)&#45;&gt;[root] var.max_session_duration</title>
<path fill="none" stroke="black" d="M1245.14,-71.52C1268.61,-62.13 1297.75,-50.47 1322.61,-40.53"/>
<polygon fill="black" stroke="black" points="1323.59,-43.91 1331.57,-36.94 1320.99,-37.41 1323.59,-43.91"/>
</g>
<!-- [root] var.name -->
<g id="node9" class="node">
<title>[root] var.name</title>
<polygon fill="none" stroke="black" points="1533.56,-36 1473.31,-36 1473.31,0 1539.56,0 1539.56,-30 1533.56,-36"/>
<polyline fill="none" stroke="black" points="1533.56,-36 1533.56,-30"/>
<polyline fill="none" stroke="black" points="1539.56,-30 1533.56,-30"/>
<text text-anchor="middle" x="1506.43" y="-12.95" font-family="Times,serif" font-size="14.00">var.name</text>
</g>
<!-- [root] aws_iam_role.role (expand)&#45;&gt;[root] var.name -->
<g id="edge8" class="edge">
<title>[root] aws_iam_role.role (expand)&#45;&gt;[root] var.name</title>
<path fill="none" stroke="black" d="M1260.43,-80.33C1311.73,-72.07 1388.05,-58.06 1462.23,-36.37"/>
<polygon fill="black" stroke="black" points="1463.13,-39.76 1471.71,-33.55 1461.13,-33.05 1463.13,-39.76"/>
</g>
<!-- [root] var.path -->
<g id="node10" class="node">
<title>[root] var.path</title>
<polygon fill="none" stroke="black" points="1611.18,-36 1557.68,-36 1557.68,0 1617.18,0 1617.18,-30 1611.18,-36"/>
<polyline fill="none" stroke="black" points="1611.18,-36 1611.18,-30"/>
<polyline fill="none" stroke="black" points="1617.18,-30 1611.18,-30"/>
<text text-anchor="middle" x="1587.43" y="-12.95" font-family="Times,serif" font-size="14.00">var.path</text>
</g>
<!-- [root] aws_iam_role.role (expand)&#45;&gt;[root] var.path -->
<g id="edge9" class="edge">
<title>[root] aws_iam_role.role (expand)&#45;&gt;[root] var.path</title>
<path fill="none" stroke="black" d="M1260.45,-84.68C1327.99,-78.7 1441.76,-65.47 1546.7,-36.06"/>
<polygon fill="black" stroke="black" points="1547.38,-39.51 1556.03,-33.39 1545.45,-32.78 1547.38,-39.51"/>
</g>
<!-- [root] var.permissions_boundary -->
<g id="node11" class="node">
<title>[root] var.permissions_boundary</title>
<polygon fill="none" stroke="black" points="1788.06,-36 1634.81,-36 1634.81,0 1794.06,0 1794.06,-30 1788.06,-36"/>
<polyline fill="none" stroke="black" points="1788.06,-36 1788.06,-30"/>
<polyline fill="none" stroke="black" points="1794.06,-30 1788.06,-30"/>
<text text-anchor="middle" x="1714.43" y="-12.95" font-family="Times,serif" font-size="14.00">var.permissions_boundary</text>
</g>
<!-- [root] aws_iam_role.role (expand)&#45;&gt;[root] var.permissions_boundary -->
<g id="edge10" class="edge">
<title>[root] aws_iam_role.role (expand)&#45;&gt;[root] var.permissions_boundary</title>
<path fill="none" stroke="black" d="M1260.39,-82.91C1340.36,-74.36 1487.91,-57.61 1623.01,-36.49"/>
<polygon fill="black" stroke="black" points="1623.55,-39.95 1632.88,-34.94 1622.46,-33.04 1623.55,-39.95"/>
</g>
<!-- [root] var.tags -->
<g id="node12" class="node">
<title>[root] var.tags</title>
<polygon fill="none" stroke="black" points="1864.43,-36 1812.43,-36 1812.43,0 1870.43,0 1870.43,-30 1864.43,-36"/>
<polyline fill="none" stroke="black" points="1864.43,-36 1864.43,-30"/>
<polyline fill="none" stroke="black" points="1870.43,-30 1864.43,-30"/>
<text text-anchor="middle" x="1841.43" y="-12.95" font-family="Times,serif" font-size="14.00">var.tags</text>
</g>
<!-- [root] aws_iam_role.role (expand)&#45;&gt;[root] var.tags -->
<g id="edge11" class="edge">
<title>[root] aws_iam_role.role (expand)&#45;&gt;[root] var.tags</title>
<path fill="none" stroke="black" d="M1260.18,-86.31C1386.71,-80.14 1682.5,-63.5 1801.38,-35.88"/>
<polygon fill="black" stroke="black" points="1801.99,-39.34 1810.85,-33.54 1800.31,-32.55 1801.99,-39.34"/>
</g>
<!-- [root] output.arn (expand) -->
<g id="node13" class="node">
<title>[root] output.arn (expand)</title>
<ellipse fill="none" stroke="black" cx="442.43" cy="-162" rx="107.65" ry="18"/>
<text text-anchor="middle" x="442.43" y="-156.95" font-family="Times,serif" font-size="14.00">[root] output.arn (expand)</text>
</g>
<!-- [root] output.arn (expand)&#45;&gt;[root] aws_iam_role.role (expand) -->
<g id="edge12" class="edge">
<title>[root] output.arn (expand)&#45;&gt;[root] aws_iam_role.role (expand)</title>
<path fill="none" stroke="black" d="M519.4,-149.02C532.41,-147.2 545.79,-145.45 558.43,-144 766.02,-120.26 1012.49,-102.98 1130.95,-95.34"/>
<polygon fill="black" stroke="black" points="1131.09,-98.84 1140.84,-94.71 1130.64,-91.86 1131.09,-98.84"/>
</g>
<!-- [root] output.create_date (expand) -->
<g id="node14" class="node">
<title>[root] output.create_date (expand)</title>
<ellipse fill="none" stroke="black" cx="705.43" cy="-162" rx="137.85" ry="18"/>
<text text-anchor="middle" x="705.43" y="-156.95" font-family="Times,serif" font-size="14.00">[root] output.create_date (expand)</text>
</g>
<!-- [root] output.create_date (expand)&#45;&gt;[root] aws_iam_role.role (expand) -->
<g id="edge13" class="edge">
<title>[root] output.create_date (expand)&#45;&gt;[root] aws_iam_role.role (expand)</title>
<path fill="none" stroke="black" d="M796.69,-148.12C893.32,-134.48 1043.75,-113.25 1131.43,-100.88"/>
<polygon fill="black" stroke="black" points="1131.67,-104.38 1141.09,-99.52 1130.7,-97.45 1131.67,-104.38"/>
</g>
<!-- [root] output.id (expand) -->
<g id="node15" class="node">
<title>[root] output.id (expand)</title>
<ellipse fill="none" stroke="black" cx="964.43" cy="-162" rx="103.04" ry="18"/>
<text text-anchor="middle" x="964.43" y="-156.95" font-family="Times,serif" font-size="14.00">[root] output.id (expand)</text>
</g>
<!-- [root] output.id (expand)&#45;&gt;[root] aws_iam_role.role (expand) -->
<g id="edge14" class="edge">
<title>[root] output.id (expand)&#45;&gt;[root] aws_iam_role.role (expand)</title>
<path fill="none" stroke="black" d="M1015.27,-145.98C1049.19,-135.96 1094.23,-122.66 1131.52,-111.65"/>
<polygon fill="black" stroke="black" points="1132.26,-115.08 1140.86,-108.89 1130.28,-108.37 1132.26,-115.08"/>
</g>
<!-- [root] output.name (expand) -->
<g id="node16" class="node">
<title>[root] output.name (expand)</title>
<ellipse fill="none" stroke="black" cx="1201.43" cy="-162" rx="116.35" ry="18"/>
<text text-anchor="middle" x="1201.43" y="-156.95" font-family="Times,serif" font-size="14.00">[root] output.name (expand)</text>
</g>
<!-- [root] output.name (expand)&#45;&gt;[root] aws_iam_role.role (expand) -->
<g id="edge15" class="edge">
<title>[root] output.name (expand)&#45;&gt;[root] aws_iam_role.role (expand)</title>
<path fill="none" stroke="black" d="M1201.43,-143.7C1201.43,-136.41 1201.43,-127.73 1201.43,-119.54"/>
<polygon fill="black" stroke="black" points="1204.93,-119.62 1201.43,-109.62 1197.93,-119.62 1204.93,-119.62"/>
</g>
<!-- [root] output.role (expand) -->
<g id="node17" class="node">
<title>[root] output.role (expand)</title>
<ellipse fill="none" stroke="black" cx="1446.43" cy="-162" rx="110.21" ry="18"/>
<text text-anchor="middle" x="1446.43" y="-156.95" font-family="Times,serif" font-size="14.00">[root] output.role (expand)</text>
</g>
<!-- [root] output.role (expand)&#45;&gt;[root] aws_iam_role.role (expand) -->
<g id="edge16" class="edge">
<title>[root] output.role (expand)&#45;&gt;[root] aws_iam_role.role (expand)</title>
<path fill="none" stroke="black" d="M1393.27,-145.81C1357.51,-135.59 1309.99,-122.02 1271.19,-110.93"/>
<polygon fill="black" stroke="black" points="1272.53,-107.67 1261.95,-108.29 1270.61,-114.41 1272.53,-107.67"/>
</g>
<!-- [root] output.unique_id (expand) -->
<g id="node18" class="node">
<title>[root] output.unique_id (expand)</title>
<ellipse fill="none" stroke="black" cx="1707.43" cy="-162" rx="132.73" ry="18"/>
<text text-anchor="middle" x="1707.43" y="-156.95" font-family="Times,serif" font-size="14.00">[root] output.unique_id (expand)</text>
</g>
<!-- [root] output.unique_id (expand)&#45;&gt;[root] aws_iam_role.role (expand) -->
<g id="edge17" class="edge">
<title>[root] output.unique_id (expand)&#45;&gt;[root] aws_iam_role.role (expand)</title>
<path fill="none" stroke="black" d="M1616.97,-148.49C1518.01,-134.8 1361.53,-113.15 1271.49,-100.69"/>
<polygon fill="black" stroke="black" points="1272.19,-97.26 1261.81,-99.35 1271.23,-104.19 1272.19,-97.26"/>
</g>
<!-- [root] provider[&quot;registry.terraform.io/hashicorp/aws&quot;] (close) -->
<g id="node19" class="node">
<title>[root] provider[&quot;registry.terraform.io/hashicorp/aws&quot;] (close)</title>
<ellipse fill="none" stroke="black" cx="2096.43" cy="-162" rx="238.16" ry="18"/>
<text text-anchor="middle" x="2096.43" y="-156.95" font-family="Times,serif" font-size="14.00">[root] provider[&quot;registry.terraform.io/hashicorp/aws&quot;] (close)</text>
</g>
<!-- [root] provider[&quot;registry.terraform.io/hashicorp/aws&quot;] (close)&#45;&gt;[root] aws_iam_role.role (expand) -->
<g id="edge18" class="edge">
<title>[root] provider[&quot;registry.terraform.io/hashicorp/aws&quot;] (close)&#45;&gt;[root] aws_iam_role.role (expand)</title>
<path fill="none" stroke="black" d="M1935.13,-148.38C1738.1,-132.97 1413.55,-107.59 1271.58,-96.49"/>
<polygon fill="black" stroke="black" points="1272.21,-93.02 1261.96,-95.73 1271.66,-100 1272.21,-93.02"/>
</g>
<!-- [root] root -->
<g id="node20" class="node">
<title>[root] root</title>
<ellipse fill="none" stroke="black" cx="1201.43" cy="-234" rx="49.3" ry="18"/>
<text text-anchor="middle" x="1201.43" y="-228.95" font-family="Times,serif" font-size="14.00">[root] root</text>
</g>
<!-- [root] root&#45;&gt;[root] output.arn (expand) -->
<g id="edge19" class="edge">
<title>[root] root&#45;&gt;[root] output.arn (expand)</title>
<path fill="none" stroke="black" d="M1152.93,-230.05C1045.59,-223.31 779.89,-205.33 558.43,-180 549.45,-178.97 540.08,-177.79 530.75,-176.54"/>
<polygon fill="black" stroke="black" points="531.28,-173.08 520.9,-175.18 530.33,-180.01 531.28,-173.08"/>
</g>
<!-- [root] root&#45;&gt;[root] output.create_date (expand) -->
<g id="edge20" class="edge">
<title>[root] root&#45;&gt;[root] output.create_date (expand)</title>
<path fill="none" stroke="black" d="M1156.1,-226.6C1077.68,-215.54 914.87,-192.56 807.92,-177.46"/>
<polygon fill="black" stroke="black" points="808.67,-174.04 798.28,-176.1 807.69,-180.97 808.67,-174.04"/>
</g>
<!-- [root] root&#45;&gt;[root] output.id (expand) -->
<g id="edge21" class="edge">
<title>[root] root&#45;&gt;[root] output.id (expand)</title>
<path fill="none" stroke="black" d="M1163.88,-221.91C1126.94,-211 1069.89,-194.15 1026.26,-181.26"/>
<polygon fill="black" stroke="black" points="1027.51,-177.98 1016.93,-178.51 1025.53,-184.69 1027.51,-177.98"/>
</g>
<!-- [root] root&#45;&gt;[root] output.name (expand) -->
<g id="edge22" class="edge">
<title>[root] root&#45;&gt;[root] output.name (expand)</title>
<path fill="none" stroke="black" d="M1201.43,-215.7C1201.43,-208.41 1201.43,-199.73 1201.43,-191.54"/>
<polygon fill="black" stroke="black" points="1204.93,-191.62 1201.43,-181.62 1197.93,-191.62 1204.93,-191.62"/>
</g>
<!-- [root] root&#45;&gt;[root] output.role (expand) -->
<g id="edge23" class="edge">
<title>[root] root&#45;&gt;[root] output.role (expand)</title>
<path fill="none" stroke="black" d="M1239.44,-222.14C1277.56,-211.25 1336.96,-194.28 1382.37,-181.3"/>
<polygon fill="black" stroke="black" points="1383.19,-184.71 1391.84,-178.6 1381.27,-177.98 1383.19,-184.71"/>
</g>
<!-- [root] root&#45;&gt;[root] output.unique_id (expand) -->
<g id="edge24" class="edge">
<title>[root] root&#45;&gt;[root] output.unique_id (expand)</title>
<path fill="none" stroke="black" d="M1246.78,-226.73C1327.14,-215.61 1496.36,-192.2 1605.8,-177.06"/>
<polygon fill="black" stroke="black" points="1606.27,-180.53 1615.69,-175.69 1605.31,-173.59 1606.27,-180.53"/>
</g>
<!-- [root] root&#45;&gt;[root] provider[&quot;registry.terraform.io/hashicorp/aws&quot;] (close) -->
<g id="edge25" class="edge">
<title>[root] root&#45;&gt;[root] provider[&quot;registry.terraform.io/hashicorp/aws&quot;] (close)</title>
<path fill="none" stroke="black" d="M1249.55,-229.24C1374.6,-219.46 1714.63,-192.86 1923.82,-176.5"/>
<polygon fill="black" stroke="black" points="1924.03,-179.99 1933.73,-175.73 1923.48,-173.02 1924.03,-179.99"/>
</g>
</g>
</svg>
