<?xml version="1.0" encoding="UTF-8" standalone="no"?>
<!DOCTYPE svg PUBLIC "-//W3C//DTD SVG 1.1//EN"
 "http://www.w3.org/Graphics/SVG/1.1/DTD/svg11.dtd">
<!-- Generated by graphviz version 2.44.0 (0)
 -->
<!-- Pages: 1 -->
<svg width="1431pt" height="260pt"
 viewBox="0.00 0.00 1431.22 260.00" xmlns="http://www.w3.org/2000/svg" xmlns:xlink="http://www.w3.org/1999/xlink">
<g id="graph0" class="graph" transform="scale(1 1) rotate(0) translate(4 256)">
<polygon fill="white" stroke="transparent" points="-4,4 -4,-256 1427.22,-256 1427.22,4 -4,4"/>
<!-- [root] aws_iam_role.role (expand) -->
<g id="node1" class="node">
<title>[root] aws_iam_role.role (expand)</title>
<polygon fill="none" stroke="black" points="646.09,-108 508.09,-108 508.09,-72 646.09,-72 646.09,-108"/>
<text text-anchor="middle" x="577.09" y="-86.3" font-family="Times-Roman" font-size="14.00">aws_iam_role.role</text>
</g>
<!-- [root] provider[&quot;registry.terraform.io/hashicorp/aws&quot;] -->
<g id="node2" class="node">
<title>[root] provider[&quot;registry.terraform.io/hashicorp/aws&quot;]</title>
<polygon fill="none" stroke="black" points="494.09,-36 181.56,-18 494.09,0 806.61,-18 494.09,-36"/>
<text text-anchor="middle" x="494.09" y="-14.3" font-family="Times-Roman" font-size="14.00">provider[&quot;registry.terraform.io/hashicorp/aws&quot;]</text>
</g>
<!-- [root] aws_iam_role.role (expand)&#45;&gt;[root] provider[&quot;registry.terraform.io/hashicorp/aws&quot;] -->
<g id="edge2" class="edge">
<title>[root] aws_iam_role.role (expand)&#45;&gt;[root] provider[&quot;registry.terraform.io/hashicorp/aws&quot;]</title>
<path fill="none" stroke="black" d="M556.57,-71.7C545.81,-62.62 532.48,-51.38 520.91,-41.62"/>
<polygon fill="black" stroke="black" points="523.13,-38.92 513.23,-35.14 518.62,-44.27 523.13,-38.92"/>
</g>
<!-- [root] var.assume_role_policy -->
<g id="node3" class="node">
<title>[root] var.assume_role_policy</title>
<polygon fill="none" stroke="black" points="995.09,-36 825.09,-36 825.09,0 1001.09,0 1001.09,-30 995.09,-36"/>
<polyline fill="none" stroke="black" points="995.09,-36 995.09,-30 "/>
<polyline fill="none" stroke="black" points="1001.09,-30 995.09,-30 "/>
<text text-anchor="middle" x="913.09" y="-14.3" font-family="Times-Roman" font-size="14.00">var.assume_role_policy</text>
</g>
<!-- [root] aws_iam_role.role (expand)&#45;&gt;[root] var.assume_role_policy -->
<g id="edge3" class="edge">
<title>[root] aws_iam_role.role (expand)&#45;&gt;[root] var.assume_role_policy</title>
<path fill="none" stroke="black" d="M646.3,-74.58C696.95,-64.03 766.19,-49.6 821.43,-38.09"/>
<polygon fill="black" stroke="black" points="822.15,-41.52 831.23,-36.05 820.72,-34.67 822.15,-41.52"/>
</g>
<!-- [root] var.role_name -->
<g id="node4" class="node">
<title>[root] var.role_name</title>
<polygon fill="none" stroke="black" points="157.59,-36 50.59,-36 50.59,0 163.59,0 163.59,-30 157.59,-36"/>
<polyline fill="none" stroke="black" points="157.59,-36 157.59,-30 "/>
<polyline fill="none" stroke="black" points="163.59,-30 157.59,-30 "/>
<text text-anchor="middle" x="107.09" y="-14.3" font-family="Times-Roman" font-size="14.00">var.role_name</text>
</g>
<!-- [root] aws_iam_role.role (expand)&#45;&gt;[root] var.role_name -->
<g id="edge4" class="edge">
<title>[root] aws_iam_role.role (expand)&#45;&gt;[root] var.role_name</title>
<path fill="none" stroke="black" d="M507.87,-82.62C429.02,-74.75 296.24,-59.67 173.65,-36.18"/>
<polygon fill="black" stroke="black" points="174.19,-32.72 163.71,-34.26 172.86,-39.6 174.19,-32.72"/>
</g>
<!-- [root] local.managed_policy_arns (expand) -->
<g id="node6" class="node">
<title>[root] local.managed_policy_arns (expand)</title>
<ellipse fill="none" stroke="black" cx="1221.09" cy="-18" rx="202.26" ry="18"/>
<text text-anchor="middle" x="1221.09" y="-14.3" font-family="Times-Roman" font-size="14.00">[root] local.managed_policy_arns (expand)</text>
</g>
<!-- [root] aws_iam_role.role (expand)&#45;&gt;[root] local.managed_policy_arns (expand) -->
<g id="edge1" class="edge">
<title>[root] aws_iam_role.role (expand)&#45;&gt;[root] local.managed_policy_arns (expand)</title>
<path fill="none" stroke="black" d="M646.31,-81.48C751.69,-70.02 954.26,-48 1088.56,-33.4"/>
<polygon fill="black" stroke="black" points="1088.95,-36.88 1098.51,-32.32 1088.19,-29.92 1088.95,-36.88"/>
</g>
<!-- [root] var.tags -->
<g id="node5" class="node">
<title>[root] var.tags</title>
<polygon fill="none" stroke="black" points="201.09,-108 135.09,-108 135.09,-72 207.09,-72 207.09,-102 201.09,-108"/>
<polyline fill="none" stroke="black" points="201.09,-108 201.09,-102 "/>
<polyline fill="none" stroke="black" points="207.09,-102 201.09,-102 "/>
<text text-anchor="middle" x="171.09" y="-86.3" font-family="Times-Roman" font-size="14.00">var.tags</text>
</g>
<!-- [root] local.tags_all (expand) -->
<g id="node7" class="node">
<title>[root] local.tags_all (expand)</title>
<ellipse fill="none" stroke="black" cx="139.09" cy="-162" rx="139.18" ry="18"/>
<text text-anchor="middle" x="139.09" y="-158.3" font-family="Times-Roman" font-size="14.00">[root] local.tags_all (expand)</text>
</g>
<!-- [root] local.tags_all (expand)&#45;&gt;[root] var.role_name -->
<g id="edge5" class="edge">
<title>[root] local.tags_all (expand)&#45;&gt;[root] var.role_name</title>
<path fill="none" stroke="black" d="M134.74,-143.85C132.15,-133.48 128.84,-120 126.09,-108 121.35,-87.34 116.36,-63.89 112.68,-46.25"/>
<polygon fill="black" stroke="black" points="116.03,-45.18 110.58,-36.1 109.18,-46.6 116.03,-45.18"/>
</g>
<!-- [root] local.tags_all (expand)&#45;&gt;[root] var.tags -->
<g id="edge6" class="edge">
<title>[root] local.tags_all (expand)&#45;&gt;[root] var.tags</title>
<path fill="none" stroke="black" d="M147,-143.7C150.64,-135.73 155.04,-126.1 159.08,-117.26"/>
<polygon fill="black" stroke="black" points="162.29,-118.65 163.27,-108.1 155.93,-115.74 162.29,-118.65"/>
</g>
<!-- [root] provider[&quot;registry.terraform.io/hashicorp/aws&quot;] (close) -->
<g id="node8" class="node">
<title>[root] provider[&quot;registry.terraform.io/hashicorp/aws&quot;] (close)</title>
<ellipse fill="none" stroke="black" cx="577.09" cy="-162" rx="280.55" ry="18"/>
<text text-anchor="middle" x="577.09" y="-158.3" font-family="Times-Roman" font-size="14.00">[root] provider[&quot;registry.terraform.io/hashicorp/aws&quot;] (close)</text>
</g>
<!-- [root] provider[&quot;registry.terraform.io/hashicorp/aws&quot;] (close)&#45;&gt;[root] aws_iam_role.role (expand) -->
<g id="edge7" class="edge">
<title>[root] provider[&quot;registry.terraform.io/hashicorp/aws&quot;] (close)&#45;&gt;[root] aws_iam_role.role (expand)</title>
<path fill="none" stroke="black" d="M577.09,-143.7C577.09,-135.98 577.09,-126.71 577.09,-118.11"/>
<polygon fill="black" stroke="black" points="580.59,-118.1 577.09,-108.1 573.59,-118.1 580.59,-118.1"/>
</g>
<!-- [root] root -->
<g id="node9" class="node">
<title>[root] root</title>
<ellipse fill="none" stroke="black" cx="577.09" cy="-234" rx="55.79" ry="18"/>
<text text-anchor="middle" x="577.09" y="-230.3" font-family="Times-Roman" font-size="14.00">[root] root</text>
</g>
<!-- [root] root&#45;&gt;[root] local.tags_all (expand) -->
<g id="edge9" class="edge">
<title>[root] root&#45;&gt;[root] local.tags_all (expand)</title>
<path fill="none" stroke="black" d="M528.12,-225.17C456.9,-213.79 323.38,-192.45 232.86,-177.99"/>
<polygon fill="black" stroke="black" points="233.29,-174.51 222.87,-176.39 232.19,-181.42 233.29,-174.51"/>
</g>
<!-- [root] root&#45;&gt;[root] provider[&quot;registry.terraform.io/hashicorp/aws&quot;] (close) -->
<g id="edge10" class="edge">
<title>[root] root&#45;&gt;[root] provider[&quot;registry.terraform.io/hashicorp/aws&quot;] (close)</title>
<path fill="none" stroke="black" d="M577.09,-215.7C577.09,-207.98 577.09,-198.71 577.09,-190.11"/>
<polygon fill="black" stroke="black" points="580.59,-190.1 577.09,-180.1 573.59,-190.1 580.59,-190.1"/>
</g>
<!-- [root] local.aws_sts (expand) -->
<g id="node10" class="node">
<title>[root] local.aws_sts (expand)</title>
<ellipse fill="none" stroke="black" cx="1016.09" cy="-162" rx="139.98" ry="18"/>
<text text-anchor="middle" x="1016.09" y="-158.3" font-family="Times-Roman" font-size="14.00">[root] local.aws_sts (expand)</text>
</g>
<!-- [root] root&#45;&gt;[root] local.aws_sts (expand) -->
<g id="edge8" class="edge">
<title>[root] root&#45;&gt;[root] local.aws_sts (expand)</title>
<path fill="none" stroke="black" d="M626.17,-225.17C697.55,-213.79 831.37,-192.45 922.1,-177.99"/>
<polygon fill="black" stroke="black" points="922.79,-181.42 932.12,-176.39 921.69,-174.51 922.79,-181.42"/>
</g>
</g>
</svg>
